<?xml version="1.0" standalone="no"?>
<!DOCTYPE svg PUBLIC "-//W3C//DTD SVG 20010904//EN"
 "http://www.w3.org/TR/2001/REC-SVG-20010904/DTD/svg10.dtd">
<svg version="1.0" xmlns="http://www.w3.org/2000/svg"
 width="260.000000pt" height="260.000000pt" viewBox="0 0 260.000000 260.000000"
 preserveAspectRatio="xMidYMid meet">
<metadata>
Created by potrace 1.14, written by Peter Selinger 2001-2017
</metadata>
<g transform="translate(0.000000,260.000000) scale(0.100000,-0.100000)"
fill="#000000" stroke="none">
<path d="M0 2181 l0 -419 117 -7 c84 -6 118 -4 121 4 4 11 54 16 65 5 14 -14
115 -8 130 8 9 9 14 18 11 21 -3 3 19 4 48 2 29 -1 59 3 67 9 7 6 57 11 114
11 94 1 100 2 108 23 8 21 13 22 90 18 55 -2 84 -8 90 -17 8 -12 10 -12 18 0
9 13 24 12 65 -5 13 -5 17 -4 13 3 -5 7 6 14 25 18 18 4 35 11 38 15 3 4 23
10 45 14 29 5 36 4 25 -3 -23 -16 4 -14 46 4 20 8 40 13 44 10 14 -9 101 14
117 30 8 8 21 15 29 15 8 0 14 5 14 10 0 6 7 10 17 10 34 0 183 123 183 152 0
10 9 26 20 35 15 13 17 20 8 31 -8 9 -8 16 -1 20 6 4 25 32 44 62 18 30 37 57
41 58 15 6 9 99 -6 105 -8 3 -12 14 -10 25 3 10 -2 24 -10 31 -9 8 -16 20 -16
27 0 8 -7 14 -15 14 -8 0 -15 7 -15 16 0 14 -8 16 -41 11 -31 -4 -38 -2 -30 6
6 6 11 19 11 29 0 17 -37 18 -810 18 l-810 0 0 -419z m1704 243 c18 -7 12 -24
-10 -24 -8 0 -14 7 -14 15 0 17 2 18 24 9z m-1284 -650 c0 -8 -5 -12 -10 -9
-6 4 -8 11 -5 16 9 14 15 11 15 -7z m-313 0 c-3 -3 -12 -4 -19 -1 -8 3 -5 6 6
6 11 1 17 -2 13 -5z"/>
<path d="M2034 2038 c3 -310 9 -638 12 -730 l6 -168 -51 0 -51 0 0 -51 0 -51
-78 4 c-98 6 -144 29 -221 109 -35 37 -81 72 -117 89 -56 27 -57 29 -26 30 19
0 32 -5 33 -12 0 -7 9 6 19 30 11 23 25 42 32 42 8 0 7 5 -4 16 -15 15 -15 19
-2 39 34 52 -27 105 -119 105 -97 0 -138 -39 -116 -109 6 -20 16 -42 22 -49
15 -20 -17 -48 -59 -50 -68 -5 -144 -48 -144 -81 0 -11 5 -9 16 8 15 21 18 22
26 6 6 -9 7 -19 4 -22 -3 -4 -6 -1 -6 5 0 7 -4 12 -10 12 -18 0 -11 -22 9 -27
27 -7 46 -93 21 -93 -5 0 -10 -12 -10 -27 0 -22 2 -25 10 -13 6 9 10 10 10 3
0 -6 -4 -14 -9 -17 -4 -3 -6 -18 -3 -32 4 -25 3 -26 -19 -21 -13 4 -36 7 -51
7 -26 0 -28 3 -28 40 l0 40 -74 0 c-50 0 -76 -4 -79 -12 -4 -10 -6 -10 -6 0
-2 25 -21 1 -21 -26 -1 -47 -32 -97 -62 -100 -27 -3 -27 -4 -12 -28 15 -22 15
-24 0 -24 -9 0 -16 -5 -16 -11 0 -6 7 -9 15 -5 16 6 18 -5 9 -52 -4 -18 -14
-32 -25 -35 -24 -6 -25 -34 -1 -41 9 -3 43 -6 75 -7 52 -2 74 -12 46 -21 -7
-2 -5 -16 7 -40 15 -32 21 -36 44 -32 25 5 27 4 22 -24 -5 -38 41 -191 69
-226 16 -20 20 -36 16 -64 -3 -20 -9 -62 -13 -92 -4 -30 -12 -58 -18 -62 -8
-5 -7 -8 2 -8 8 0 12 -15 12 -42 0 -32 -3 -39 -10 -28 -8 13 -10 12 -10 -3 0
-14 -5 -17 -21 -12 -19 6 -20 5 -8 -8 10 -10 19 -12 32 -6 15 8 17 5 17 -26
l0 -35 700 0 700 0 -4 23 c-3 12 -10 148 -17 302 -7 154 -16 285 -21 292 -5 7
-7 21 -3 33 4 12 2 20 -5 20 -8 0 -10 10 -8 25 3 13 1 22 -3 19 -5 -3 -10 5
-10 18 -1 13 -2 39 -3 58 -1 19 -5 41 -9 48 -5 6 -5 17 -2 22 3 6 -1 13 -9 16
-9 3 -16 10 -16 15 0 4 7 5 17 2 10 -4 14 -2 9 5 -3 6 2 15 11 21 15 8 16 13
5 31 -13 21 -12 21 18 5 16 -8 30 -22 30 -30 0 -14 10 -18 68 -30 l32 -7 0 65
0 64 -147 6 c-102 3 -150 2 -155 -6 -15 -24 -38 15 -38 64 l0 49 -34 0 -34 0
-6 83 c-3 45 -8 190 -11 322 -3 132 -8 330 -11 440 -4 151 -2 196 6 185 9 -12
10 -9 6 15 -3 17 -8 119 -12 228 l-7 197 -65 0 -64 0 6 -562z m-567 -823 c2
-1 -3 -9 -10 -19 -12 -16 -14 -15 -37 9 l-24 25 35 -6 c19 -4 35 -8 36 -9z
m398 -217 c14 -16 25 -39 25 -50 0 -19 -2 -19 -22 -6 -12 8 -33 33 -45 56 -22
39 -22 40 -3 35 11 -3 31 -19 45 -35z m413 -23 c-3 -3 -9 2 -12 12 -6 14 -5
15 5 6 7 -7 10 -15 7 -18z m-1054 -36 c-6 -11 -24 -2 -24 11 0 5 7 7 15 4 8
-4 12 -10 9 -15z m-123 -51 c7 -10 9 -10 9 0 0 17 19 15 26 -3 4 -9 -12 -31
-42 -60 -40 -36 -56 -44 -86 -45 -38 0 -38 0 -38 39 0 22 4 42 9 45 5 3 7 16
3 28 -5 20 -3 21 53 15 32 -3 62 -12 66 -19z m326 -194 c-3 -3 -12 -4 -19 -1
-8 3 -5 6 6 6 11 1 17 -2 13 -5z m309 -29 c6 -2 10 -14 8 -27 -1 -12 -3 -101
-3 -195 l-1 -173 -32 -15 -33 -15 30 5 c25 4 21 0 -18 -20 -27 -13 -54 -28
-60 -33 -12 -9 -62 -25 -82 -26 -5 -1 -13 -5 -18 -11 -4 -5 -5 13 -1 40 3 28
6 64 7 82 1 17 12 42 24 55 21 22 22 31 19 173 -1 83 1 155 6 161 8 10 119 10
154 -1z m634 -2 c0 -11 -3 -14 -8 -7 -4 6 -14 14 -22 17 -10 4 -8 6 8 6 15 1
22 -5 22 -16z m30 2 c7 -9 8 -15 2 -15 -5 0 -12 7 -16 15 -3 8 -4 15 -2 15 2
0 9 -7 16 -15z m-1040 -304 c0 -30 5 -51 13 -54 9 -4 9 -8 -2 -15 -7 -5 -15
-23 -17 -38 -8 -55 -19 -95 -27 -95 -4 1 -17 1 -28 1 -19 0 -20 4 -15 34 4 18
2 45 -3 59 -7 19 -6 28 4 37 8 7 22 36 32 66 22 69 43 72 43 5z m-39 -225 c7
-67 -2 -106 -24 -106 -9 0 -11 13 -9 40 3 25 8 37 15 33 6 -4 7 -1 1 8 -14 22
-13 36 2 36 8 0 15 -5 15 -11z"/>
<path d="M1635 230 c-4 -6 -10 -8 -14 -6 -4 3 -21 2 -37 -3 l-29 -8 33 -5 c24
-3 40 1 55 13 12 10 17 18 10 19 -6 0 -15 -5 -18 -10z"/>
<path d="M1306 205 c4 -8 11 -15 16 -15 6 0 5 6 -2 15 -7 8 -14 15 -16 15 -2
0 -1 -7 2 -15z"/>
<path d="M2478 1932 c-35 -2 -48 -7 -48 -19 0 -9 6 -13 15 -9 8 3 27 1 43 -5
19 -7 38 -6 57 1 15 6 30 9 32 7 2 -3 7 -40 12 -83 l8 -79 2 97 1 97 -29 -9
c-16 -4 -33 -5 -37 -2 -5 4 -30 6 -56 4z"/>
<path d="M1238 1863 c7 -3 16 -2 19 1 4 3 -2 6 -13 5 -11 0 -14 -3 -6 -6z"/>
<path d="M618 1795 c-3 -3 -41 -8 -84 -11 -77 -5 -112 -22 -76 -36 27 -11 50
-8 27 3 -17 8 -16 9 5 3 14 -3 31 -6 38 -6 16 -2 16 3 -17 -198 -16 -96 -37
-224 -46 -285 -9 -60 -24 -125 -32 -142 -14 -31 -19 -33 -66 -33 -27 0 -90 5
-139 12 -67 9 -91 9 -100 0 -6 -6 -9 -14 -6 -18 4 -3 72 -5 153 -5 140 2 147
1 152 -19 5 -20 23 -28 23 -11 0 11 36 25 65 26 38 0 22 30 -17 33 -28 2 -38
8 -38 20 0 9 13 89 29 177 17 88 37 203 46 255 8 52 21 118 27 146 l11 51 43
-5 c29 -3 44 -1 44 7 0 6 -4 11 -10 11 -5 0 -10 7 -10 15 0 15 -12 20 -22 10z"/>
<path d="M675 1330 l-40 -7 48 -2 c30 0 46 3 42 9 -3 6 -7 9 -8 9 -1 -1 -20
-5 -42 -9z"/>
<path d="M682 1280 c0 -19 2 -27 5 -17 2 9 2 25 0 35 -3 9 -5 1 -5 -18z"/>
<path d="M672 1205 c0 -16 2 -22 5 -12 2 9 2 23 0 30 -3 6 -5 -1 -5 -18z"/>
<path d="M1180 1161 c0 -17 18 -21 24 -6 3 9 0 15 -9 15 -8 0 -15 -4 -15 -9z"/>
<path d="M662 1130 c0 -19 2 -27 5 -17 2 9 2 25 0 35 -3 9 -5 1 -5 -18z"/>
<path d="M550 1090 c0 -11 4 -20 9 -20 17 0 19 15 5 28 -12 11 -14 9 -14 -8z"/>
<path d="M605 1080 c3 -5 8 -10 11 -10 2 0 4 5 4 10 0 6 -5 10 -11 10 -5 0 -7
-4 -4 -10z"/>
<path d="M608 923 c-9 -2 -17 -12 -16 -21 0 -9 -3 -27 -7 -39 -8 -26 12 -33
21 -8 10 25 21 17 19 -12 -3 -42 -3 -43 -30 -43 -20 0 -25 -5 -25 -25 0 -22 4
-25 40 -25 39 0 40 1 41 38 0 36 3 55 14 115 4 23 1 27 -18 26 -12 -1 -30 -3
-39 -6z"/>
<path d="M697 923 c-11 -11 -8 -23 6 -23 9 0 14 -17 16 -55 2 -53 1 -55 -23
-55 -21 0 -26 -5 -26 -25 0 -22 4 -25 34 -25 33 0 34 1 40 53 4 28 9 71 12 95
6 41 6 42 -23 42 -16 0 -33 -3 -36 -7z"/>
<path d="M780 920 c0 -5 4 -10 10 -10 13 0 23 -63 15 -98 -4 -19 -12 -29 -23
-28 -11 1 -18 -8 -20 -21 -3 -20 1 -23 31 -23 20 0 34 5 34 13 0 6 4 49 8 95
l8 82 -32 0 c-17 0 -31 -4 -31 -10z"/>
<path d="M269 912 l-46 -3 -15 -74 c-16 -81 -15 -85 40 -85 41 0 49 10 62 76
17 84 14 90 -41 86z m-2 -66 c-3 -8 -1 -17 6 -20 7 -2 4 -5 -5 -5 -10 -1 -18
1 -18 3 0 10 13 36 17 36 3 0 3 -6 0 -14z"/>
<path d="M379 913 c-10 -2 -21 -21 -27 -44 -9 -35 -8 -39 9 -39 12 0 19 7 19
19 0 35 18 32 22 -4 4 -34 3 -35 -29 -35 -18 0 -33 -3 -34 -7 0 -5 -2 -16 -4
-25 -2 -10 -3 -18 -2 -19 22 -6 86 -8 90 -2 3 4 8 26 11 48 3 22 9 57 12 78 6
36 5 37 -23 36 -15 -1 -35 -3 -44 -6z"/>
<path d="M480 903 c0 -10 -3 -28 -6 -40 -5 -17 -2 -23 10 -23 9 0 16 7 16 15
0 32 17 13 18 -21 1 -35 0 -36 -27 -31 -26 5 -29 3 -33 -23 -4 -29 -3 -30 38
-30 46 0 45 -4 60 118 l7 52 -42 0 c-32 0 -41 -4 -41 -17z"/>
<path d="M98 903 c-16 -2 -28 -9 -28 -14 0 -5 -8 -9 -17 -9 -14 0 -15 -2 -4
-9 7 -5 11 -17 7 -27 -3 -11 -8 -34 -11 -51 l-5 -33 60 0 c41 0 60 4 61 13 0
6 2 19 4 27 1 8 6 36 10 63 l7 47 -28 -1 c-16 -1 -41 -4 -56 -6z"/>
<path d="M0 858 c0 -49 7 -47 15 5 4 23 2 37 -4 37 -6 0 -11 -19 -11 -42z"/>
<path d="M686 865 c-3 -9 0 -15 9 -15 8 0 15 7 15 15 0 8 -4 15 -9 15 -5 0
-11 -7 -15 -15z"/>
<path d="M780 870 c0 -5 5 -10 10 -10 6 0 10 5 10 10 0 6 -4 10 -10 10 -5 0
-10 -4 -10 -10z"/>
<path d="M2462 800 c0 -14 2 -19 5 -12 2 6 2 18 0 25 -3 6 -5 1 -5 -13z"/>
<path d="M1060 156 c0 -2 9 -6 20 -9 11 -3 18 -1 14 4 -5 9 -34 13 -34 5z"/>
<path d="M998 133 c6 -2 18 -2 25 0 6 3 1 5 -13 5 -14 0 -19 -2 -12 -5z"/>
<path d="M40 87 c9 -9 229 -59 242 -55 6 2 -35 15 -92 27 -151 33 -156 34
-150 28z"/>
<path d="M710 50 c-12 -7 -10 -9 8 -7 12 0 22 5 22 9 0 11 -12 10 -30 -2z"/>
<path d="M742 39 c-10 -16 -9 -19 4 -19 8 0 13 4 10 9 -4 5 -1 11 6 13 7 3 8
7 2 11 -5 3 -15 -3 -22 -14z"/>
<path d="M979 43 c-13 -16 -12 -17 4 -4 9 7 17 15 17 17 0 8 -8 3 -21 -13z"/>
<path d="M780 30 c0 -11 48 -25 57 -16 4 3 -1 6 -10 6 -9 0 -17 5 -17 10 0 6
-7 10 -15 10 -8 0 -15 -4 -15 -10z"/>
<path d="M625 23 c6 -6 28 -13 49 -16 51 -8 34 9 -19 18 -26 5 -37 4 -30 -2z"/>
<path d="M375 10 c3 -5 8 -10 11 -10 2 0 4 5 4 10 0 6 -5 10 -11 10 -5 0 -7
-4 -4 -10z"/>
<path d="M410 10 c0 -6 7 -10 15 -10 8 0 15 2 15 4 0 2 -7 6 -15 10 -8 3 -15
1 -15 -4z"/>
</g>
</svg>
